<svg width="103" height="33" viewBox="0 0 103 33" fill="none" xmlns="http://www.w3.org/2000/svg">
<path d="M54.046 8.54C54.0465 8.81356 53.993 9.08453 53.8886 9.33737C53.7841 9.59021 53.6308 9.81993 53.4374 10.0134C53.2439 10.2068 53.0142 10.3601 52.7614 10.4646C52.5085 10.569 52.2376 10.6225 51.964 10.622C51.6904 10.6227 51.4193 10.5693 51.1663 10.4649C50.9134 10.3605 50.6835 10.2072 50.49 10.0137C50.2964 9.82028 50.143 9.5905 50.0385 9.3376C49.934 9.0847 49.8805 8.81364 49.881 8.54C49.881 7.387 50.778 6.458 51.964 6.458C53.149 6.49 54.046 7.418 54.046 8.54ZM45.461 12.736V13.249C45.461 13.249 44.468 11.968 42.354 11.968C38.862 11.968 36.14 14.626 36.14 18.31C36.14 21.962 38.83 24.652 42.354 24.652C44.5 24.652 45.461 23.339 45.461 23.339V23.883C45.461 24.14 45.653 24.332 45.91 24.332H48.504V12.288H45.91C45.7918 12.2903 45.6791 12.3382 45.5954 12.4217C45.5117 12.5052 45.4636 12.6178 45.461 12.736ZM45.461 20.456C44.981 21.161 44.02 21.769 42.866 21.769C40.816 21.769 39.246 20.488 39.246 18.309C39.246 16.132 40.816 14.85 42.866 14.85C43.988 14.85 45.013 15.491 45.461 16.164V20.456ZM50.426 12.288H53.501V24.332H50.426V12.288ZM96.36 11.968C94.246 11.968 93.253 13.248 93.253 13.248V6.49H90.178V24.332H92.772C92.8904 24.3297 93.0032 24.2817 93.0869 24.1979C93.1706 24.1142 93.2187 24.0014 93.221 23.883V23.339C93.221 23.339 94.214 24.652 96.328 24.652C99.819 24.652 102.542 21.962 102.542 18.31C102.542 14.658 99.819 11.968 96.36 11.968ZM95.848 21.738C94.662 21.738 93.733 21.128 93.253 20.424V16.132C93.733 15.491 94.758 14.818 95.848 14.818C97.898 14.818 99.467 16.1 99.467 18.278C99.467 20.456 97.898 21.738 95.848 21.738ZM88.576 17.188V24.364H85.501V17.54C85.501 15.554 84.861 14.753 83.131 14.753C82.202 14.753 81.241 15.233 80.632 15.938V24.331H77.557V12.288H79.992C80.248 12.288 80.44 12.512 80.44 12.736V13.249C81.337 12.319 82.522 11.968 83.707 11.968C85.053 11.968 86.174 12.352 87.071 13.121C88.16 14.018 88.576 15.17 88.576 17.188ZM70.094 11.968C67.98 11.968 66.987 13.248 66.987 13.248V6.49H63.912V24.332H66.506C66.6243 24.3295 66.737 24.2813 66.8207 24.1977C66.9043 24.114 66.9524 24.0013 66.955 23.883V23.339C66.955 23.339 67.948 24.652 70.062 24.652C73.553 24.652 76.276 21.962 76.276 18.31C76.308 14.658 73.585 11.968 70.094 11.968ZM69.581 21.738C68.396 21.738 67.467 21.128 66.987 20.424V16.132C67.467 15.491 68.492 14.818 69.581 14.818C71.631 14.818 73.201 16.1 73.201 18.278C73.201 20.456 71.631 21.738 69.581 21.738ZM61.253 11.968C62.182 11.968 62.662 12.128 62.662 12.128V14.978C62.662 14.978 60.1 14.114 58.498 15.939V24.364H55.423V12.288H58.018C58.274 12.288 58.466 12.512 58.466 12.736V13.249C59.043 12.576 60.292 11.968 61.253 11.968ZM29.317 23.242C29.157 22.857 28.997 22.441 28.837 22.089C28.58 21.512 28.324 20.968 28.1 20.455L28.068 20.423C25.8247 15.5405 23.464 10.7127 20.988 5.944L20.893 5.752C20.636 5.272 20.38 4.759 20.123 4.247C19.803 3.67 19.483 3.062 18.971 2.485C17.945 1.205 16.472 0.5 14.903 0.5C13.301 0.5 11.859 1.205 10.803 2.422C10.322 2.999 9.97 3.607 9.649 4.184C9.39954 4.68897 9.14351 5.19068 8.881 5.689L8.784 5.881C6.318 10.686 3.916 15.555 1.705 20.36L1.673 20.424C1.449 20.936 1.193 21.481 0.936999 22.058C0.776999 22.41 0.617 22.794 0.457 23.211C0.0399997 24.396 -0.0879986 25.517 0.0720014 26.671C0.243769 27.8427 0.718205 28.9494 1.44846 29.8816C2.17871 30.8139 3.13952 31.5396 4.236 31.987C5.05735 32.3319 5.94019 32.5065 6.831 32.5C8.25183 32.4608 9.63989 32.0643 10.867 31.347C12.18 30.61 13.429 29.553 14.839 28.015C16.248 29.553 17.529 30.61 18.811 31.347C20.0381 32.0643 21.4262 32.4608 22.847 32.5C23.743 32.5 24.64 32.34 25.441 31.988C27.683 31.091 29.253 29.04 29.605 26.67C29.862 25.549 29.733 24.427 29.317 23.242ZM14.87 24.907C13.14 22.729 12.02 20.679 11.635 18.949C11.475 18.213 11.443 17.572 11.539 16.996C11.603 16.483 11.795 16.035 12.052 15.65C12.66 14.785 13.685 14.24 14.871 14.24C16.056 14.24 17.113 14.753 17.689 15.65C17.946 16.035 18.138 16.483 18.202 16.996C18.298 17.572 18.266 18.245 18.106 18.949C17.721 20.647 16.599 22.697 14.87 24.907ZM27.651 26.413C27.5357 27.2382 27.2057 28.0187 26.6942 28.6764C26.1826 29.3341 25.5074 29.8461 24.736 30.161C23.9655 30.4746 23.1273 30.5847 22.302 30.481C21.502 30.385 20.7 30.129 19.868 29.648C18.714 29.008 17.561 28.015 16.216 26.541C18.33 23.946 19.611 21.576 20.092 19.462C20.3002 18.5701 20.3543 17.6491 20.252 16.739C20.1333 15.9566 19.8374 15.2117 19.387 14.561C18.394 13.12 16.728 12.287 14.87 12.287C13.013 12.287 11.347 13.152 10.354 14.561C9.9036 15.2117 9.60775 15.9566 9.489 16.739C9.35361 17.648 9.40809 18.5751 9.649 19.462C10.129 21.576 11.443 23.979 13.525 26.573C12.212 28.047 11.027 29.04 9.873 29.68C9.041 30.16 8.24 30.417 7.439 30.513C6.61372 30.6052 5.77841 30.4954 5.005 30.193C4.23358 29.8781 3.55835 29.3661 3.04681 28.7084C2.53527 28.0507 2.20533 27.2702 2.09 26.445C1.98418 25.601 2.08296 24.7438 2.378 23.946C2.474 23.626 2.634 23.306 2.795 22.921C3.019 22.409 3.275 21.864 3.531 21.32L3.563 21.256C5.773 16.483 8.143 11.614 10.61 6.873L10.706 6.681C10.963 6.201 11.219 5.688 11.476 5.208C11.7173 4.70392 12.0181 4.23055 12.372 3.798C13.045 3.03 13.942 2.613 14.935 2.613C15.928 2.613 16.825 3.03 17.497 3.798C17.85 4.215 18.137 4.695 18.394 5.208C18.65 5.688 18.907 6.201 19.163 6.681L19.259 6.873C21.6878 11.6334 24.0266 16.4393 26.274 21.288V21.32C26.53 21.832 26.754 22.409 27.011 22.921C27.171 23.306 27.331 23.626 27.427 23.946C27.683 24.779 27.779 25.58 27.651 26.413Z" fill="#FF5A5F"/>
</svg>
