<svg width="93" height="29" viewBox="0 0 93 29" fill="none" xmlns="http://www.w3.org/2000/svg">
<path fill-rule="evenodd" clip-rule="evenodd" d="M57.585 22.4101C52.185 26.4001 44.375 28.5001 37.645 28.5001C28.6497 28.5484 19.9598 25.2393 13.275 19.2201C12.775 18.7701 13.225 18.1401 13.835 18.5001C21.2573 22.7387 29.6577 24.9655 38.205 24.9601C44.185 24.9601 50.755 23.7201 56.805 21.1601C57.705 20.7701 58.475 21.7601 57.585 22.4101Z" fill="#EFA82E"/>
<path fill-rule="evenodd" clip-rule="evenodd" d="M59.825 19.8601C59.135 18.9801 55.265 19.4401 53.525 19.6501C53.005 19.7101 52.925 19.2501 53.395 18.9201C56.485 16.7501 61.545 17.3801 62.125 18.1001C62.725 18.8401 61.975 23.9001 59.085 26.3101C58.635 26.6901 58.215 26.4901 58.415 26.0001C59.065 24.3701 60.515 20.7401 59.825 19.8601Z" fill="#EFA82E"/>
<path fill-rule="evenodd" clip-rule="evenodd" d="M53.655 3.63006V1.53006C53.655 1.20006 53.895 0.990058 54.185 0.990058H63.635C63.935 0.990058 64.175 1.21006 64.175 1.52006V3.32006C64.175 3.62006 63.915 4.02006 63.465 4.65006L58.565 11.6201C60.385 11.5801 62.305 11.8501 63.965 12.7801C64.325 12.9801 64.435 13.2901 64.465 13.6001V15.8401C64.465 16.1501 64.125 16.5101 63.765 16.3201C62.2203 15.5277 60.5086 15.116 58.7726 15.1195C57.0365 15.123 55.3265 15.5415 53.785 16.3401C53.455 16.5101 53.115 16.1601 53.115 15.8501V13.7201C53.115 13.3801 53.115 12.7901 53.465 12.2701L59.135 4.16006H54.195C54.1246 4.16139 54.0546 4.14866 53.9891 4.12262C53.9237 4.09658 53.864 4.05775 53.8138 4.0084C53.7635 3.95906 53.7235 3.90018 53.6963 3.83522C53.669 3.77025 53.655 3.70051 53.655 3.63006ZM19.205 16.7601H16.325C16.1986 16.7514 16.0792 16.6986 15.9878 16.6109C15.8964 16.5231 15.8388 16.406 15.825 16.2801V1.56006C15.825 1.26006 16.065 1.03006 16.375 1.03006H19.045C19.325 1.04006 19.545 1.26006 19.565 1.53006V3.45006H19.625C20.325 1.59006 21.625 0.720058 23.405 0.720058C25.205 0.720058 26.325 1.59006 27.135 3.45006C27.4207 2.63418 27.9582 1.93013 28.6699 1.43948C29.3817 0.948815 30.2308 0.696899 31.095 0.720058C32.295 0.720058 33.615 1.22006 34.425 2.33006C35.325 3.57006 35.145 5.37006 35.145 6.95006V16.2301C35.145 16.5301 34.895 16.7601 34.595 16.7601H31.725C31.5887 16.7551 31.4593 16.6987 31.3628 16.6023C31.2663 16.5058 31.21 16.3764 31.205 16.2401V8.44006C31.205 7.81006 31.265 6.26006 31.125 5.68006C30.905 4.68006 30.265 4.41006 29.435 4.41006C28.735 4.41006 28.015 4.87006 27.715 5.61006C27.425 6.36006 27.455 7.60006 27.455 8.43006V16.2301C27.455 16.5301 27.205 16.7601 26.895 16.7601H24.025C23.8904 16.7527 23.7635 16.6952 23.6691 16.599C23.5748 16.5028 23.5198 16.3747 23.515 16.2401V8.44006C23.515 6.79006 23.775 4.38006 21.745 4.38006C19.675 4.38006 19.755 6.73006 19.755 8.43006V16.2301C19.755 16.5301 19.505 16.7601 19.205 16.7601ZM72.315 3.73006C70.205 3.73006 70.065 6.61006 70.065 8.40006C70.065 10.2001 70.045 14.0401 72.295 14.0401C74.515 14.0401 74.625 10.9401 74.625 9.05006C74.625 7.81006 74.575 6.33006 74.195 5.15006C73.875 4.13006 73.235 3.73006 72.315 3.73006ZM72.295 0.720058C76.555 0.720058 78.865 4.38006 78.865 9.02006C78.865 13.5201 76.315 17.0701 72.295 17.0701C68.105 17.0701 65.835 13.4201 65.835 8.87006C65.835 4.28006 68.135 0.720058 72.295 0.720058ZM84.395 16.7601H81.525C81.3904 16.7527 81.2635 16.6952 81.1691 16.599C81.0748 16.5028 81.0198 16.3747 81.015 16.2401V1.50006C81.0321 1.36663 81.0975 1.24411 81.1989 1.15566C81.3002 1.06721 81.4305 1.01897 81.565 1.02006H84.225C84.475 1.03006 84.685 1.20006 84.735 1.43006V3.68006H84.785C85.595 1.67006 86.725 0.710058 88.705 0.710058C89.995 0.710058 91.255 1.18006 92.055 2.45006C92.805 3.62006 92.805 5.61006 92.805 7.03006V16.2901C92.7835 16.4198 92.7162 16.5376 92.6153 16.622C92.5144 16.7064 92.3865 16.7518 92.255 16.7501H89.375C89.2516 16.7422 89.1346 16.6923 89.0436 16.6085C88.9526 16.5248 88.8931 16.4124 88.875 16.2901V8.29006C88.875 6.69006 89.055 4.34006 87.075 4.34006C86.375 4.34006 85.725 4.80006 85.405 5.51006C85.005 6.41006 84.945 7.31006 84.945 8.30006V16.2201C84.945 16.5201 84.695 16.7501 84.395 16.7501M49.015 16.7201C48.9212 16.798 48.8059 16.8455 48.6844 16.8562C48.5629 16.8669 48.441 16.8404 48.335 16.7801C47.375 15.9901 47.205 15.6301 46.685 14.8801C45.115 16.4801 43.985 16.9601 41.955 16.9601C39.535 16.9601 37.655 15.4601 37.655 12.4901C37.6205 11.4885 37.8958 10.5006 38.4435 9.66124C38.9911 8.8219 39.7844 8.17194 40.715 7.80006C42.275 7.12006 44.455 7.00006 46.115 6.80006V6.44006C46.115 5.75006 46.175 4.94006 45.765 4.36006C45.415 3.83006 44.745 3.61006 44.155 3.61006C43.055 3.61006 42.085 4.17006 41.845 5.33006C41.795 5.59006 41.605 5.85006 41.345 5.86006L38.565 5.56006C38.325 5.51006 38.065 5.32006 38.135 4.96006C38.775 1.59006 41.825 0.560059 44.555 0.560059C45.955 0.560059 47.785 0.940058 48.885 2.00006C50.285 3.30006 50.145 5.04006 50.145 6.93006V11.4001C50.145 12.7401 50.705 13.3301 51.235 14.0601C51.415 14.3201 51.455 14.6301 51.225 14.8201C50.635 15.3101 49.595 16.2201 49.025 16.7201H49.015ZM46.115 9.72006C46.115 10.8401 46.145 11.7701 45.575 12.7701C45.125 13.5701 44.395 14.0701 43.595 14.0701C42.495 14.0701 41.845 13.2301 41.845 11.9901C41.845 9.55006 44.045 9.11006 46.115 9.11006V9.72006ZM11.355 16.7201C11.2612 16.798 11.1459 16.8455 11.0244 16.8562C10.9029 16.8669 10.781 16.8404 10.675 16.7801C9.72501 15.9901 9.55501 15.6301 9.02501 14.8801C7.45501 16.4801 6.33501 16.9601 4.29501 16.9601C1.87501 16.9601 -0.00499199 15.4601 -0.00499199 12.4901C-0.0395019 11.4885 0.235842 10.5006 0.783475 9.66124C1.33111 8.8219 2.12436 8.17194 3.05501 7.80006C4.61501 7.12006 6.79501 7.00006 8.45501 6.80006V6.44006C8.45501 5.75006 8.51501 4.94006 8.10501 4.36006C7.76501 3.83006 7.08501 3.61006 6.50501 3.61006C5.40501 3.61006 4.42501 4.17006 4.18501 5.33006C4.13501 5.59006 3.94501 5.85006 3.68501 5.86006L0.905008 5.56006C0.675008 5.51006 0.405008 5.32006 0.475008 4.96006C1.11501 1.59006 4.17501 0.560059 6.90501 0.560059C8.30501 0.560059 10.125 0.940058 11.225 2.00006C12.625 3.30006 12.495 5.04006 12.495 6.93006V11.4001C12.495 12.7401 13.045 13.3301 13.575 14.0601C13.755 14.3201 13.795 14.6301 13.565 14.8201C12.975 15.3101 11.935 16.2201 11.365 16.7201H11.355ZM8.45501 9.72006C8.45501 10.8401 8.485 11.7701 7.925 12.7701C7.465 13.5701 6.745 14.0701 5.925 14.0701C4.825 14.0701 4.18501 13.2301 4.18501 11.9901C4.18501 9.55006 6.38501 9.11006 8.46501 9.11006V9.72006H8.45501Z" fill="#1B1A19"/>
</svg>
