<svg width="161" height="19" viewBox="0 0 161 19" fill="none" xmlns="http://www.w3.org/2000/svg">
<path fill-rule="evenodd" clip-rule="evenodd" d="M156.329 12.36C155.683 14.05 154.39 15.02 152.626 15.02C149.692 15.02 147.903 12.93 147.903 9.525C147.903 6.069 149.692 3.981 152.626 3.981C154.39 3.981 155.683 4.951 156.329 6.641H160.281C159.312 2.911 156.404 0.5 152.626 0.5C147.604 0.5 144.05 4.23 144.05 9.525C144.05 14.771 147.604 18.5 152.626 18.5C156.429 18.5 159.337 16.064 160.306 12.36H156.329ZM8.932 5.202L6.558 11.319H11.305L8.932 5.202ZM0.00500488 18.206L6.943 0.803H10.921L17.859 18.206H13.979L12.561 14.552H5.30301L3.884 18.206H0.00500488ZM32.648 12.986L24.818 0.803H20.592V18.206H24.197V6.024L32.027 18.206H36.253V0.803H32.648V12.986ZM45.076 4.159H39.234V0.803H54.645V4.159H48.805V18.206H45.077V4.16L45.076 4.159ZM69.57 7.739H61.367V0.803H57.639V18.206H61.367V11.096H69.57V18.206H73.299V0.803H69.57V7.739ZM86.229 4.159H81.63V8.038H86.229C88.069 8.038 89.039 7.366 89.039 6.098C89.039 4.831 88.069 4.159 86.229 4.159ZM86.403 0.803C90.357 0.803 92.769 2.817 92.769 6.099C92.769 8.401 91.582 10.079 89.509 10.875L93.639 18.206H89.511L85.782 11.394H81.63V18.207H77.9V0.802H86.403V0.803ZM124.538 8.535H119.937V4.159H124.538C126.378 4.159 127.348 4.905 127.348 6.347C127.348 7.789 126.378 8.535 124.538 8.535ZM124.712 0.803H116.206V18.206H119.937V11.891H124.712C128.666 11.891 131.079 9.803 131.079 6.347C131.079 2.891 128.666 0.803 124.712 0.803ZM132.564 0.803L139.502 18.206H143.308L136.369 0.803H132.564ZM99.471 9.525C99.471 12.931 101.261 15.019 104.194 15.019C107.102 15.019 108.866 12.931 108.866 9.525C108.866 6.069 107.102 3.981 104.194 3.981C101.261 3.981 99.471 6.069 99.471 9.525ZM95.619 9.525C95.619 4.229 99.173 0.5 104.194 0.5C109.189 0.5 112.719 4.23 112.719 9.525C112.719 14.771 109.189 18.5 104.194 18.5C99.173 18.5 95.619 14.77 95.619 9.525Z" fill="#181818"/>
</svg>
