<svg width="20" height="21" viewBox="0 0 20 21" fill="none" xmlns="http://www.w3.org/2000/svg">
<path d="M10.005 0.5C12.6572 0.5 15.2007 1.55357 17.0761 3.42893C18.9514 5.3043 20.005 7.84784 20.005 10.5C20.005 13.1522 18.9514 15.6957 17.0761 17.5711C15.2007 19.4464 12.6572 20.5 10.005 20.5C7.35284 20.5 4.8093 19.4464 2.93394 17.5711C1.05857 15.6957 0.00500488 13.1522 0.00500488 10.5C0.00500488 7.84784 1.05857 5.3043 2.93394 3.42893C4.8093 1.55357 7.35284 0.5 10.005 0.5ZM13.305 6.61H4.34501C4.23494 6.61 4.12938 6.65372 4.05156 6.73155C3.97373 6.80938 3.93 6.91494 3.93 7.025C3.93 7.13507 3.97373 7.24062 4.05156 7.31845C4.12938 7.39628 4.23494 7.44 4.34501 7.44H13.285C14.0208 7.48334 14.7122 7.80617 15.2178 8.34245C15.7235 8.87873 16.0051 9.58794 16.0051 10.325C16.0051 11.0621 15.7235 11.7713 15.2178 12.3076C14.7122 12.8438 14.0208 13.1667 13.285 13.21H7.655C7.54494 13.21 7.43938 13.2537 7.36156 13.3316C7.28373 13.4094 7.24001 13.5149 7.24001 13.625C7.24001 13.7351 7.28373 13.8406 7.36156 13.9184C7.43938 13.9963 7.54494 14.04 7.655 14.04H13.295C14.2803 14.04 15.2252 13.6486 15.9219 12.9519C16.6186 12.2552 17.01 11.3103 17.01 10.325C17.01 9.33972 16.6186 8.3948 15.9219 7.6981C15.2252 7.0014 14.2803 6.61 13.295 6.61H13.305ZM13.305 8.26C12.8972 8.25802 12.4979 8.37715 12.1578 8.6023C11.8177 8.82745 11.5521 9.14848 11.3947 9.52472C11.2372 9.90096 11.195 10.3155 11.2734 10.7157C11.3517 11.116 11.5471 11.484 11.8348 11.7731C12.1225 12.0622 12.4896 12.2594 12.8894 12.3397C13.2893 12.42 13.704 12.3797 14.081 12.2241C14.458 12.0685 14.7803 11.8045 15.0071 11.4655C15.2339 11.1265 15.355 10.7279 15.355 10.32C15.355 9.19 14.435 8.26 13.295 8.26H13.305ZM10.475 11.56H5.775C5.66494 11.56 5.55938 11.6037 5.48156 11.6816C5.40373 11.7594 5.36 11.8649 5.36 11.975C5.36 12.0851 5.40373 12.1906 5.48156 12.2684C5.55938 12.3463 5.66494 12.39 5.775 12.39H10.475C10.5851 12.39 10.6906 12.3463 10.7685 12.2684C10.8463 12.1906 10.89 12.0851 10.89 11.975C10.89 11.8649 10.8463 11.7594 10.7685 11.6816C10.6906 11.6037 10.5851 11.56 10.475 11.56ZM13.305 9.1C13.4765 9.08455 13.6494 9.105 13.8126 9.16004C13.9758 9.21509 14.1257 9.30352 14.2528 9.4197C14.3799 9.53589 14.4815 9.67728 14.5509 9.83487C14.6204 9.99245 14.6562 10.1628 14.6562 10.335C14.6562 10.5072 14.6204 10.6775 14.5509 10.8351C14.4815 10.9927 14.3799 11.1341 14.2528 11.2503C14.1257 11.3665 13.9758 11.4549 13.8126 11.51C13.6494 11.565 13.4765 11.5854 13.305 11.57C12.9966 11.5422 12.7098 11.4001 12.5009 11.1716C12.2921 10.943 12.1762 10.6446 12.1762 10.335C12.1762 10.0254 12.2921 9.72698 12.5009 9.49844C12.7098 9.2699 12.9966 9.12778 13.305 9.1ZM10.005 9.9H3.415C3.30494 9.9 3.19938 9.94372 3.12156 10.0216C3.04373 10.0994 3 10.2049 3 10.315C3 10.4251 3.04373 10.5306 3.12156 10.6084C3.19938 10.6863 3.30494 10.73 3.415 10.73H10.015C10.235 10.73 10.415 10.54 10.415 10.31C10.4124 10.203 10.368 10.1013 10.2914 10.0265C10.2148 9.95179 10.112 9.90997 10.005 9.91V9.9ZM10.475 8.25H6.245C6.13494 8.25 6.02938 8.29372 5.95156 8.37155C5.87373 8.44938 5.83 8.55494 5.83 8.665C5.83 8.77506 5.87373 8.88062 5.95156 8.95845C6.02938 9.03628 6.13494 9.08 6.245 9.08H10.475C10.5851 9.08 10.6906 9.03628 10.7685 8.95845C10.8463 8.88062 10.89 8.77506 10.89 8.665C10.89 8.55494 10.8463 8.44938 10.7685 8.37155C10.6906 8.29372 10.5851 8.25 10.475 8.25Z" fill="white"/>
</svg>
