<svg width="102" height="35" viewBox="0 0 102 35" fill="none" xmlns="http://www.w3.org/2000/svg">
<path d="M43.605 18.1501C43.6185 19.2568 43.41 20.3551 42.9917 21.3798C42.5735 22.4046 41.9541 23.3351 41.17 24.1164C40.3859 24.8976 39.4532 25.5138 38.4269 25.9283C37.4007 26.3429 36.3017 26.5475 35.195 26.5301C34.0891 26.5462 32.9913 26.3406 31.9661 25.9254C30.941 25.5102 30.0095 24.8939 29.2265 24.1128C28.4436 23.3316 27.825 22.4016 27.4074 21.3775C26.9898 20.3534 26.7815 19.256 26.795 18.1501C26.7774 17.043 26.9828 15.9438 27.3989 14.9178C27.8151 13.8918 28.4335 12.9601 29.2173 12.1781C30.0011 11.3961 30.9343 10.78 31.9613 10.3662C32.9883 9.95254 34.088 9.74979 35.195 9.77006C39.825 9.77006 43.595 13.2901 43.595 18.1501H43.605ZM39.915 18.1501C39.915 15.1301 37.725 13.0701 35.195 13.0701C32.655 13.0701 30.465 15.1301 30.465 18.1501C30.465 21.1301 32.655 23.2201 35.195 23.2201C37.725 23.2201 39.915 21.1201 39.915 18.1501Z" fill="#EA4335"/>
<path d="M61.735 18.15C61.7485 19.2568 61.54 20.355 61.1217 21.3798C60.7035 22.4045 60.084 23.3351 59.3 24.1163C58.5159 24.8976 57.5832 25.5137 56.5569 25.9283C55.5307 26.3429 54.4317 26.5475 53.325 26.53C52.2191 26.5461 51.1212 26.3405 50.0961 25.9253C49.071 25.5102 48.1395 24.8938 47.3565 24.1127C46.5735 23.3316 45.955 22.4015 45.5374 21.3774C45.1197 20.3533 44.9115 19.2559 44.925 18.15C44.9088 17.0433 45.1151 15.9447 45.5317 14.9193C45.9484 13.894 46.5668 12.9628 47.3504 12.1811C48.1339 11.3995 49.0665 10.7832 50.0929 10.369C51.1193 9.95483 52.2184 9.75112 53.325 9.77C57.955 9.77 61.725 13.29 61.725 18.15H61.735ZM58.055 18.15C58.055 15.13 55.855 13.07 53.325 13.07C50.785 13.07 48.595 15.13 48.595 18.15C48.595 21.13 50.795 23.22 53.325 23.22C55.865 23.22 58.055 21.12 58.055 18.15Z" fill="#FBBC05"/>
<path d="M79.105 10.27V25.32C79.105 31.5 75.455 34.03 71.145 34.03C69.5554 34.0403 67.9989 33.5756 66.6751 32.6954C65.3513 31.8153 64.3206 30.5598 63.715 29.09L66.915 27.76C67.2449 28.6195 67.8236 29.3612 68.577 29.8902C69.3305 30.4192 70.2246 30.7116 71.145 30.73C73.905 30.73 75.615 29.03 75.615 25.83V24.62H75.485C74.9324 25.2385 74.2515 25.7289 73.4899 26.0571C72.7282 26.3852 71.9041 26.5432 71.075 26.52C66.875 26.52 63.045 22.87 63.045 18.18C63.045 13.45 66.885 9.77002 71.075 9.77002C73.075 9.77002 74.655 10.65 75.485 11.64H75.615V10.28H79.115L79.105 10.27ZM75.875 18.17C75.875 15.23 73.905 13.07 71.405 13.07C68.865 13.07 66.735 15.23 66.735 18.17C66.735 21.1 68.865 23.22 71.405 23.22C73.905 23.22 75.875 21.1 75.875 18.18V18.17Z" fill="#4285F4"/>
<path d="M84.865 1.45996V26H81.275V1.45996H84.865Z" fill="#34A853"/>
<path d="M98.855 20.9L101.715 22.8C100.949 23.9507 99.9098 24.8931 98.6896 25.5425C97.4695 26.1918 96.1071 26.5277 94.725 26.52C93.6236 26.5351 92.5305 26.328 91.5109 25.9114C90.4913 25.4947 89.5661 24.8768 88.7905 24.0947C88.0149 23.3126 87.4048 22.3822 86.9967 21.3591C86.5886 20.336 86.3907 19.2412 86.415 18.14C86.415 13.16 89.995 9.76001 94.315 9.76001C98.665 9.76001 100.795 13.22 101.485 15.09L101.865 16.05L90.665 20.68C91.0092 21.4616 91.5803 22.1216 92.3043 22.5745C93.0283 23.0275 93.8717 23.2523 94.725 23.22C96.605 23.22 97.905 22.3 98.855 20.9ZM90.055 17.89L97.555 14.78C97.135 13.73 95.905 13 94.445 13C93.8345 13.028 93.2356 13.1773 92.6835 13.4394C92.1313 13.7014 91.6369 14.0708 91.2291 14.5261C90.8213 14.9813 90.5084 15.5133 90.3085 16.0909C90.1086 16.6685 90.0258 17.2801 90.065 17.89H90.055Z" fill="#EA4335"/>
<path d="M13.205 15.97V12.4H25.185C25.295 13.02 25.355 13.75 25.355 14.55C25.355 17.21 24.625 20.51 22.275 22.86C19.995 25.24 17.075 26.51 13.205 26.51C6.03501 26.51 0.00500488 20.67 0.00500488 13.51C0.00500488 6.33 6.03501 0.5 13.205 0.5C17.175 0.5 20.005 2.06 22.125 4.09L19.615 6.59C17.8966 4.93162 15.5929 4.01877 13.205 4.05C11.9679 4.04855 10.7429 4.29314 9.6012 4.76954C8.45952 5.24593 7.42397 5.94461 6.55482 6.82493C5.68566 7.70525 5.00026 8.74963 4.53848 9.89731C4.0767 11.045 3.84777 12.273 3.86501 13.51C3.86501 18.75 7.96501 22.97 13.205 22.97C14.4211 23.0203 15.6341 22.8149 16.7658 22.367C17.8975 21.9192 18.9227 21.2388 19.775 20.37C20.775 19.36 21.435 17.92 21.695 15.97H13.195H13.205Z" fill="#4285F4"/>
</svg>
