<svg width="20" height="21" viewBox="0 0 20 21" fill="none" xmlns="http://www.w3.org/2000/svg">
<path d="M3.81499 13.74L3.80499 13.725C3.60658 13.526 3.48295 13.2646 3.45499 12.985C3.43559 12.8081 3.45434 12.6291 3.50999 12.46C3.53499 12.32 3.57499 12.19 3.62999 12.075L3.66999 11.99L7.33999 5.5H18.265C18.5831 5.50449 18.8877 5.62915 19.1177 5.84895C19.3477 6.06875 19.4861 6.36742 19.505 6.685L19.51 6.765V18.225C19.5146 18.5467 19.396 18.858 19.1785 19.0951C18.9609 19.3322 18.6609 19.4771 18.34 19.5L18.26 19.505H9.50499C9.62562 19.3732 9.7166 19.2171 9.7718 19.0472C9.827 18.8773 9.84514 18.6975 9.82499 18.52C9.78999 18.19 9.60999 17.975 9.34999 17.785L9.27499 17.735L3.96499 13.87L3.89499 13.82V13.815L3.96499 13.865C3.91767 13.8331 3.87256 13.798 3.82999 13.76L3.81499 13.745V13.74Z" fill="url(#paint0_linear_2_438)"/>
<path d="M11.03 1.54993C11.38 1.47493 11.735 1.54993 12.025 1.75493L15.305 4.11493C15.5201 4.26946 15.6806 4.48831 15.7633 4.73994C15.8459 4.99156 15.8465 5.26294 15.765 5.51493V5.49993L11.515 18.4999L11.49 18.5999L11.475 18.6399L11.46 18.6849L11.385 18.8449L11.375 18.8649L11.28 19.0099L11.265 19.0299C11.2292 19.0738 11.1908 19.1155 11.15 19.1549L11.135 19.1649C11.0495 19.2465 10.9516 19.314 10.845 19.3649L10.83 19.3799C10.78 19.4049 10.73 19.4299 10.675 19.4449H10.65L10.485 19.4849H10.46C10.4005 19.4946 10.3403 19.4997 10.28 19.4999H1.77001C1.60305 19.4999 1.43773 19.4669 1.2836 19.4027C1.12947 19.3385 0.989567 19.2444 0.87197 19.1259C0.754372 19.0074 0.661402 18.8667 0.598421 18.7121C0.53544 18.5575 0.503694 18.3919 0.505014 18.2249V6.77493C0.505014 6.06993 1.07001 5.49993 1.77001 5.49993H8.30501L10.205 2.14993C10.3654 1.87158 10.6268 1.66567 10.935 1.57493L11.025 1.54993H11.03Z" fill="#65C227"/>
<path d="M15.695 5.5L11.51 18.5L11.5 18.55L11.49 18.6L11.475 18.64L11.46 18.685L11.425 18.765L11.385 18.845L11.375 18.865L11.325 18.94L11.28 19.01L11.265 19.03L11.21 19.095L11.15 19.155L11.135 19.165C11.095 19.21 11.05 19.245 11.005 19.28L10.93 19.33L10.845 19.37L10.83 19.38L10.755 19.415L10.675 19.445H10.65L10.57 19.47L10.52 19.475L10.57 19.425C10.77 19.17 10.865 18.84 10.825 18.515C10.79 18.185 10.61 17.97 10.35 17.78L10.275 17.73L4.96502 13.865L4.89502 13.815C4.8486 13.7749 4.80515 13.7314 4.76502 13.685L4.74502 13.66C4.72416 13.6374 4.70414 13.6141 4.68502 13.59L4.67502 13.57L4.66002 13.55C4.62817 13.5021 4.59976 13.4519 4.57502 13.4L4.56002 13.37C4.52881 13.3024 4.50371 13.2321 4.48502 13.16L4.48002 13.125L4.47002 13.075L4.46502 13.045C4.439 12.8767 4.44751 12.7049 4.49002 12.54L4.50002 12.495C4.50632 12.4782 4.51299 12.4615 4.52002 12.445C4.53502 12.32 4.57002 12.195 4.62502 12.075L4.67502 11.99L8.33502 5.5H15.69H15.695Z" fill="url(#paint1_linear_2_438)"/>
<defs>
<linearGradient id="paint0_linear_2_438" x1="11.465" y1="6.34" x2="11.465" y2="20.34" gradientUnits="userSpaceOnUse">
<stop offset="0.1"/>
<stop offset="0.39"/>
<stop offset="0.77"/>
<stop offset="1"/>
</linearGradient>
<linearGradient id="paint1_linear_2_438" x1="15.695" y1="14.465" x2="5.81502" y2="14.465" gradientUnits="userSpaceOnUse">
<stop stop-color="#65C227"/>
<stop offset="1" stop-color="#4F991E"/>
</linearGradient>
</defs>
</svg>
