<svg width="20" height="20" viewBox="0 0 20 20" fill="none" xmlns="http://www.w3.org/2000/svg">
<path d="M13.005 1.23C13.005 0.55 12.455 0 11.77 0H1.24001C0.913332 -2.67726e-06 0.59996 0.129426 0.368496 0.359954C0.137032 0.590481 0.00633231 0.903325 0.00500973 1.23V16.27C0.00443236 16.4757 0.0554669 16.6783 0.153442 16.8592C0.251417 17.0401 0.393202 17.1936 0.56582 17.3055C0.738437 17.4174 0.936372 17.4843 1.14151 17.4999C1.34664 17.5155 1.55242 17.4795 1.74001 17.395L6.84001 15.13L12.27 12.715C12.72 12.515 13.005 12.08 13.005 11.59V1.23Z" fill="url(#paint0_linear_2_379)"/>
<path d="M13.255 19.5C15.0452 19.5 16.7621 18.7888 18.028 17.523C19.2938 16.2571 20.005 14.5402 20.005 12.75C20.005 10.9598 19.2938 9.2429 18.028 7.97703C16.7621 6.71116 15.0452 6 13.255 6C11.4648 6 9.7479 6.71116 8.48203 7.97703C7.21616 9.2429 6.505 10.9598 6.505 12.75C6.505 14.5402 7.21616 16.2571 8.48203 17.523C9.7479 18.7888 11.4648 19.5 13.255 19.5Z" fill="#00D924"/>
<path d="M13.005 6V11.59C13.005 12.08 12.72 12.52 12.27 12.715L6.92001 15.095C6.54819 14.0935 6.41938 13.0181 6.54417 11.9572C6.66895 10.8962 7.04376 9.88002 7.63779 8.99215C8.23182 8.10428 9.0281 7.37008 9.96117 6.84991C10.8942 6.32973 11.9374 6.03845 13.005 6Z" fill="url(#paint1_linear_2_379)"/>
<defs>
<linearGradient id="paint0_linear_2_379" x1="6.50501" y1="3.175" x2="6.50501" y2="17.515" gradientUnits="userSpaceOnUse">
<stop stop-color="#FFD748"/>
<stop offset="1" stop-color="#FFC148"/>
</linearGradient>
<linearGradient id="paint1_linear_2_379" x1="9.75501" y1="6.005" x2="9.75501" y2="15.095" gradientUnits="userSpaceOnUse">
<stop stop-color="#00A600"/>
<stop offset="1" stop-color="#00D924"/>
</linearGradient>
</defs>
</svg>
