<svg width="20" height="21" viewBox="0 0 20 21" fill="none" xmlns="http://www.w3.org/2000/svg">
<path d="M6.24 0.334961C4.56766 0.440865 3.0007 1.18804 1.86567 2.42077C0.730632 3.65351 0.115092 5.2767 0.147323 6.95208C0.179554 8.62746 0.857071 10.2258 2.03868 11.4139C3.22028 12.6021 4.81483 13.2885 6.49 13.33H11.765C12.45 13.33 13.005 12.78 13.005 12.09V6.83496C13.0064 5.9584 12.8304 5.09062 12.4876 4.2839C12.1447 3.47717 11.6421 2.74819 11.01 2.14087C10.3779 1.53355 9.62947 1.06046 8.8097 0.7501C7.98992 0.439736 7.1158 0.298521 6.24 0.334961Z" fill="url(#paint0_linear_2_408)"/>
<path d="M13.77 20.3251C15.4424 20.2192 17.0093 19.472 18.1443 18.2393C19.2794 17.0065 19.8949 15.3833 19.8627 13.708C19.8305 12.0326 19.1529 10.4343 17.9713 9.2461C16.7897 8.05793 15.1952 7.37158 13.52 7.33008H8.24501C7.91614 7.33008 7.60075 7.46072 7.3682 7.69327C7.13566 7.92581 7.00501 8.24121 7.00501 8.57008V13.8251C7.00358 14.7016 7.17959 15.5694 7.52245 16.3761C7.86531 17.1829 8.36792 17.9118 8.99999 18.5192C9.63207 19.1265 10.3805 19.5996 11.2003 19.9099C12.0201 20.2203 12.8942 20.3615 13.77 20.3251Z" fill="#65C227"/>
<path d="M13.005 7.3302V12.0902C13.005 12.4191 12.8744 12.7345 12.6418 12.967C12.4093 13.1996 12.0939 13.3302 11.765 13.3302H7.00501V8.5702C7.00435 8.25473 7.12396 7.95087 7.33947 7.7205C7.55498 7.49012 7.8502 7.35055 8.16501 7.3302L8.24501 7.3252H13.005V7.3302Z" fill="url(#paint1_linear_2_408)"/>
<defs>
<linearGradient id="paint0_linear_2_408" x1="6.505" y1="1.18496" x2="6.505" y2="7.95496" gradientUnits="userSpaceOnUse">
<stop offset="0.33"/>
<stop offset="0.74"/>
<stop offset="1"/>
</linearGradient>
<linearGradient id="paint1_linear_2_408" x1="10.005" y1="8.1902" x2="10.005" y2="13.9502" gradientUnits="userSpaceOnUse">
<stop/>
<stop offset="1" stop-color="#65C227"/>
</linearGradient>
</defs>
</svg>
