<svg width="20" height="21" viewBox="0 0 20 21" fill="none" xmlns="http://www.w3.org/2000/svg">
<path d="M17.31 6.30986C17.1676 6.07569 16.9538 5.89342 16.7 5.78986L4.27501 0.769863C4.07911 0.690008 3.86651 0.659758 3.65611 0.681797C3.4457 0.703836 3.24399 0.777483 3.06889 0.8962C2.89378 1.01492 2.75069 1.17503 2.65232 1.36233C2.55396 1.54963 2.50336 1.75831 2.50501 1.96986V8.16986C2.50501 8.69486 2.82501 9.16986 3.31001 9.36986L6.53001 10.6699L17.31 15.0299C17.44 14.8299 17.51 14.5899 17.505 14.3499V6.98986C17.505 6.74986 17.44 6.50986 17.31 6.30486V6.30986Z" fill="url(#paint0_linear_2_349)"/>
<path d="M17.32 6.30981L6.53501 10.6698L3.31001 11.9698C3.07138 12.0666 2.86719 12.2327 2.72372 12.4465C2.58026 12.6604 2.50409 12.9123 2.50501 13.1698V19.3798C2.5054 19.5905 2.55739 19.7979 2.65643 19.9839C2.75548 20.1698 2.89857 20.3287 3.07319 20.4466C3.24781 20.5645 3.44865 20.6378 3.65815 20.6602C3.86766 20.6825 4.07945 20.6532 4.27501 20.5748L16.705 15.5498C16.955 15.4448 17.17 15.2648 17.31 15.0298C17.44 14.8248 17.51 14.5898 17.505 14.3498V6.98981C17.505 6.74981 17.445 6.51481 17.32 6.30981Z" fill="black"/>
<path d="M17.315 6.30981L17.365 6.39481C17.455 6.57981 17.505 6.77981 17.505 6.98981V6.97481V14.3498C17.505 14.5898 17.44 14.8248 17.31 15.0298L6.535 10.6698L17.315 6.30981Z" fill="url(#paint1_linear_2_349)"/>
<defs>
<linearGradient id="paint0_linear_2_349" x1="10.005" y1="2.73486" x2="10.005" y2="11.2349" gradientUnits="userSpaceOnUse">
<stop stop-color="#65C227"/>
<stop offset="1" stop-color="#65C227"/>
</linearGradient>
<linearGradient id="paint1_linear_2_349" x1="17.505" y1="6.30981" x2="17.505" y2="15.0298" gradientUnits="userSpaceOnUse">
<stop stop-color="#65C227"/>
<stop offset="1"/>
</linearGradient>
</defs>
</svg>
