<svg width="200" height="41" viewBox="0 0 200 41" fill="none" xmlns="http://www.w3.org/2000/svg">
<path d="M123.584 36.466H122.065V35.693H125.941V36.466H124.422V40.382H123.584V36.466ZM118.279 36.466H116.773V35.693H120.637V36.466H119.131V40.382H118.279V36.466ZM108.98 35.693H108.142V40.3829H108.98V35.693ZM104.213 37.8019C104.422 37.8019 104.592 37.7369 104.71 37.6059C104.832 37.4741 104.898 37.3003 104.894 37.1209C104.898 36.9377 104.832 36.7599 104.71 36.623C104.647 36.5604 104.571 36.5119 104.487 36.4804C104.404 36.4488 104.315 36.4351 104.226 36.4399H103.335V37.8019H104.213ZM102.523 35.693H104.213C104.488 35.693 104.737 35.733 104.933 35.824C105.106 35.8964 105.261 36.0054 105.387 36.1435C105.514 36.2817 105.609 36.4456 105.666 36.624C105.719 36.794 105.745 36.951 105.745 37.094C105.745 37.383 105.68 37.658 105.562 37.881C105.429 38.1133 105.234 38.3039 104.999 38.431L106.033 40.395H105.077L104.173 38.549H103.335V40.395H102.523V35.693ZM98.803 37.8019C99.013 37.8019 99.183 37.7369 99.301 37.6059C99.4223 37.4739 99.4878 37.3002 99.484 37.1209C99.4878 36.9378 99.4225 36.76 99.301 36.623C99.2374 36.5604 99.1614 36.5117 99.0778 36.4802C98.9943 36.4487 98.9051 36.435 98.816 36.4399H97.926V37.8019H98.803ZM97.101 35.693H98.791C99.065 35.693 99.314 35.733 99.511 35.824C99.707 35.916 99.864 36.021 99.982 36.164C100.1 36.309 100.192 36.453 100.244 36.624C100.311 36.8299 100.336 37.0472 100.318 37.263C100.3 37.4789 100.239 37.689 100.139 37.881C100.007 38.1135 99.8116 38.3041 99.576 38.431L100.611 40.395H99.655L98.751 38.549H97.9V40.395H97.087V35.693H97.101ZM93.774 38.457L93.184 36.637L92.582 38.457H93.774ZM92.765 35.693H93.63L95.32 40.3829H94.376L93.983 39.1899H92.32L91.927 40.382H91.049L92.765 35.693ZM84.933 35.693H85.719L87.055 37.907L88.378 35.693H89.163L89.373 40.3829H88.561L88.404 37.1339L87.238 39.046H86.832L85.653 37.173L85.509 40.3829H84.723L84.933 35.693ZM113.342 39.6749C113.545 39.68 113.747 39.6377 113.931 39.5512C114.115 39.4648 114.277 39.3366 114.403 39.1769C114.534 39.0199 114.625 38.8489 114.691 38.6399C114.756 38.4429 114.796 38.234 114.796 38.011C114.796 37.788 114.756 37.5789 114.691 37.3689C114.632 37.1767 114.534 36.9987 114.403 36.846C114.281 36.6922 114.124 36.5707 113.944 36.492C113.757 36.401 113.55 36.3561 113.342 36.361C113.119 36.361 112.923 36.401 112.739 36.491C112.565 36.5814 112.41 36.7055 112.284 36.8563C112.158 37.007 112.064 37.1813 112.006 37.3689C111.867 37.7808 111.867 38.2271 112.006 38.639C112.071 38.836 112.163 39.0189 112.294 39.1769C112.425 39.3339 112.569 39.4519 112.739 39.5439C112.923 39.6219 113.119 39.6749 113.342 39.6749ZM113.342 40.5C113.014 40.5 112.713 40.434 112.425 40.303C112.15 40.1756 111.901 39.9979 111.691 39.7789C111.477 39.5512 111.308 39.2843 111.194 38.993C110.95 38.37 110.95 37.6779 111.194 37.055C111.312 36.754 111.482 36.492 111.691 36.269C111.901 36.047 112.137 35.8759 112.425 35.7449C112.713 35.6149 113.014 35.549 113.342 35.549C113.669 35.549 113.97 35.6139 114.259 35.7449C114.534 35.8759 114.782 36.047 114.992 36.269C115.202 36.492 115.372 36.754 115.49 37.055C115.734 37.6779 115.734 38.37 115.49 38.993C115.376 39.2846 115.207 39.5515 114.992 39.7789C114.786 40.0019 114.537 40.1802 114.259 40.303C113.971 40.4344 113.658 40.5016 113.342 40.5Z" fill="black"/>
<path d="M107.539 31.004H115.07L102.471 0.984L96.145 4.05L100.545 14.502L98.502 19.362L90.617 0.5L84.226 3.42L89.36 15.47L89.334 15.523C86.164 23.133 82.287 25.215 81.907 25.359C80.7019 25.8551 79.3902 26.0354 78.096 25.883L75.005 32.511C76.027 33.1 77.179 33.441 78.397 33.441C79.943 33.441 81.357 32.903 82.537 32.013L82.523 32.039C82.523 32.039 85.443 30.559 88.574 22.451C88.574 22.438 89.727 19.858 90.342 18.208L90.408 18.025L95.908 31.017H103.427L99.55 21.875L101.606 17.016L107.539 31.004Z" fill="#A11D2B"/>
</svg>
