<svg width="111" height="31" viewBox="0 0 111 31" fill="none" xmlns="http://www.w3.org/2000/svg">
<path fill-rule="evenodd" clip-rule="evenodd" d="M27.565 6.82103C28.1086 7.74879 28.4477 8.78197 28.5596 9.8514C28.6715 10.9208 28.5537 12.0018 28.214 13.022V13.02C29.2984 14.22 29.9738 15.7331 30.1431 17.3416C30.3124 18.95 29.9668 20.5706 29.156 21.97C28.6238 22.9046 27.8982 23.7148 27.0276 24.3464C26.157 24.9779 25.1616 25.4162 24.108 25.632C23.6106 27.1722 22.6368 28.5145 21.3271 29.4653C20.0174 30.4161 18.4395 30.9262 16.821 30.922C15.7459 30.929 14.6817 30.7062 13.6997 30.2685C12.7177 29.8308 11.8405 29.1883 11.127 28.384C9.54492 28.7237 7.89582 28.552 6.41767 27.8936C4.93951 27.2353 3.70876 26.1243 2.903 24.721C2.35964 23.7934 2.02066 22.7604 1.90873 21.6911C1.79681 20.6219 1.91452 19.5411 2.254 18.521C1.16909 17.3205 0.493536 15.8064 0.32477 14.1971C0.156005 12.5878 0.502755 10.9665 1.315 9.56703C1.8473 8.63231 2.5731 7.82206 3.44385 7.19052C4.31459 6.55897 5.31019 6.1207 6.364 5.90503C6.86173 4.36621 7.83519 3.02517 9.14408 2.07517C10.453 1.12518 12.0297 0.615302 13.647 0.619029C14.7222 0.612656 15.7864 0.835957 16.7684 1.27399C17.7503 1.71203 18.6274 2.35471 19.341 3.15903C20.923 2.81923 22.572 2.9908 24.0501 3.64899C25.5283 4.30718 26.7591 5.41795 27.565 6.82103ZM13.188 27.628C14.2079 28.479 15.4947 28.9441 16.823 28.942C18.3277 28.9389 19.7698 28.3394 20.8334 27.2749C21.8969 26.2104 22.4952 24.7678 22.497 23.263V16.218C22.4952 16.2031 22.4896 16.1889 22.4809 16.1767C22.4722 16.1644 22.4605 16.1546 22.447 16.148L19.897 14.676V23.183C19.8979 23.3572 19.8525 23.5285 19.7653 23.6793C19.6781 23.8301 19.5524 23.9549 19.401 24.041L13.367 27.526C13.308 27.5617 13.249 27.5957 13.188 27.628ZM3.945 19.926C3.71681 21.2345 3.95649 22.5816 4.622 23.731C5.37652 25.034 6.618 25.9845 8.07237 26.374C9.52674 26.7636 11.0762 26.5604 12.381 25.809L18.481 22.288C18.4927 22.2786 18.502 22.2665 18.5081 22.2528C18.5142 22.239 18.5169 22.224 18.516 22.209V19.264L11.15 23.518C10.9995 23.6061 10.8283 23.6525 10.654 23.6525C10.4797 23.6525 10.3085 23.6061 10.158 23.518L4.124 20.033C4.08175 20.0085 4.03975 19.9834 3.998 19.958L3.945 19.926ZM5.99 8.06903C4.74303 8.52648 3.69665 9.4079 3.034 10.559C2.28336 11.8637 2.07969 13.4128 2.4694 14.8667C2.85912 16.3206 3.80943 17.5607 5.112 18.315L11.212 21.84C11.2259 21.846 11.241 21.8484 11.256 21.847C11.2711 21.8456 11.2855 21.8405 11.298 21.832L13.848 20.359L6.482 16.106C6.33086 16.0197 6.20537 15.8948 6.1184 15.744C6.03142 15.5933 5.98607 15.4221 5.987 15.248V8.27803C5.98679 8.20835 5.98779 8.13867 5.99 8.06903ZM16.62 11.181L23.987 15.435C24.1379 15.5214 24.2641 15.6465 24.3508 15.7972C24.4374 15.948 24.4823 16.1191 24.481 16.293V23.473C25.4936 23.0999 26.3789 22.4459 27.0334 21.5878C27.6878 20.7297 28.0842 19.703 28.1762 18.6277C28.2682 17.5525 28.052 16.4733 27.5529 15.5165C27.0538 14.5597 26.2925 13.7648 25.358 13.225L19.257 9.70003C19.2432 9.6939 19.2281 9.69133 19.2131 9.69255C19.1981 9.69378 19.1836 9.69875 19.171 9.70703L16.621 11.179L16.62 11.181ZM26.524 11.614C26.4651 11.578 26.4058 11.5426 26.346 11.508L20.312 8.02303C20.1615 7.93497 19.9903 7.88856 19.816 7.88856C19.6417 7.88856 19.4705 7.93497 19.32 8.02303L11.954 12.277V9.33203C11.9532 9.31694 11.9561 9.30188 11.9623 9.28813C11.9686 9.27437 11.9781 9.26233 11.99 9.25303L18.09 5.73403C19.0243 5.19485 20.0928 4.93295 21.1705 4.97901C22.2482 5.02506 23.2905 5.37715 24.1754 5.99406C25.0603 6.61098 25.7511 7.46719 26.1671 8.46248C26.583 9.45776 26.7068 10.5509 26.524 11.614ZM8.015 15.39L10.566 16.863V16.861L10.57 8.35803C10.569 8.18384 10.6144 8.01252 10.7016 7.86171C10.7887 7.7109 10.9145 7.58606 11.066 7.50003L17.101 4.01503C17.154 3.98303 17.233 3.93803 17.28 3.91403C16.4507 3.22367 15.4419 2.78381 14.3717 2.64595C13.3015 2.50808 12.2142 2.67791 11.237 3.13555C10.2598 3.5932 9.4332 4.31972 8.85391 5.23009C8.27463 6.14045 7.96664 7.19699 7.966 8.27603V15.32C7.96783 15.3349 7.97337 15.3492 7.9821 15.3614C7.99083 15.3736 8.00249 15.3835 8.01601 15.39H8.015ZM15.233 11.981L11.952 13.876V17.664L15.233 19.558L18.515 17.664V13.875L15.233 11.981ZM34.878 15.187C34.878 20.141 38.06 23.597 42.469 23.597C46.879 23.597 50.06 20.141 50.06 15.187C50.06 10.233 46.878 6.77703 42.469 6.77703C38.059 6.77703 34.878 10.232 34.878 15.187ZM47.151 15.187C47.151 18.732 45.219 21.027 42.469 21.027C39.719 21.027 37.787 18.732 37.787 15.187C37.787 11.642 39.719 9.34603 42.469 9.34603C45.219 9.34603 47.151 11.642 47.151 15.187ZM58.253 23.596C61.594 23.596 63.503 20.777 63.503 17.391C63.503 14.005 61.594 11.186 58.253 11.186C56.707 11.186 55.571 11.8 54.821 12.686V11.413H52.095V27.437H54.822V22.096C55.572 22.982 56.707 23.596 58.253 23.596ZM54.753 17.05C54.753 14.8 56.025 13.573 57.707 13.573C59.685 13.573 60.753 15.118 60.753 17.391C60.753 19.664 59.685 21.209 57.707 21.209C56.025 21.209 54.753 19.959 54.753 17.755V17.05ZM75.997 20.255C75.156 22.345 73.27 23.595 70.883 23.595C67.474 23.595 65.088 21.073 65.088 17.391C65.088 13.891 67.315 11.186 70.77 11.186C74.224 11.186 76.065 13.8 76.065 17.073V17.982H67.702C67.906 20.027 69.133 21.277 70.883 21.277C72.224 21.277 73.293 20.596 73.656 19.368L75.997 20.255ZM73.315 15.936C73.293 14.618 72.474 13.482 70.747 13.482C69.338 13.482 68.247 14.322 67.838 15.936H73.315ZM78.112 23.346H80.84V16.346C80.84 14.641 82.09 13.732 83.317 13.732C84.817 13.732 85.408 14.8 85.408 16.277V23.346H88.135V15.482C88.135 12.913 86.635 11.186 84.135 11.186C82.59 11.186 81.521 11.891 80.84 12.686V11.413H78.112V23.346ZM89.941 23.346L96.123 7.02703H99.419L105.601 23.347H102.669L101.26 19.619H94.214L92.828 23.346H89.941ZM100.305 17.073L97.714 10.255L95.168 17.073H100.305ZM110.283 7.07503H107.374V23.393H110.283V7.07603V7.07503Z" fill="black"/>
</svg>
