<svg width="200" height="41" viewBox="0 0 200 41" fill="none" xmlns="http://www.w3.org/2000/svg">
<path d="M66.251 8.655C66.368 8.675 66.524 8.753 66.544 8.929C66.564 9.085 70.159 33.413 70.159 33.413L61.346 35.6L41.005 32.084C41.005 32.084 43.428 13.306 43.525 12.661C43.643 11.781 43.682 11.762 44.6 11.469C44.614 11.455 45.27 11.253 46.309 10.934L47.746 10.492C47.942 9.085 48.626 7.268 49.544 5.822C50.854 3.751 52.436 2.598 54.038 2.559C54.859 2.539 55.543 2.813 56.09 3.399C56.13 3.457 56.168 3.497 56.207 3.536C56.286 3.516 56.383 3.516 56.461 3.516C57.711 3.516 58.728 4.22 59.431 5.568C59.646 5.978 59.803 6.388 59.901 6.721L60.897 6.408C61.053 6.368 61.424 6.31 61.62 6.506C61.815 6.701 63.789 8.616 63.789 8.616C63.789 8.616 66.134 8.636 66.251 8.656V8.655ZM58.093 7.277C58.373 7.189 58.637 7.105 58.884 7.033C58.63 6.213 58.044 4.845 56.813 4.61C57.184 5.587 57.282 6.72 57.302 7.522C57.578 7.439 57.843 7.356 58.093 7.277ZM55.423 8.108L56.246 7.854C56.246 6.974 56.168 5.665 55.719 4.747C55.249 4.943 54.859 5.275 54.566 5.587C53.804 6.408 53.179 7.659 52.846 8.909C53.7039 8.63849 54.5629 8.37149 55.423 8.108ZM55.015 3.888C54.742 3.711 54.429 3.633 54.058 3.633C51.596 3.711 49.446 7.561 48.86 10.14L49.116 10.06C49.92 9.81 50.771 9.545 51.654 9.28C51.967 7.64 52.749 5.959 53.764 4.864C54.156 4.434 54.586 4.103 55.015 3.888ZM55.445 17.018L56.461 13.188C56.461 13.188 55.582 12.739 53.823 12.895C49.349 13.188 47.317 16.315 47.512 19.402C47.644 21.453 48.859 22.316 49.924 23.072C50.756 23.663 51.497 24.189 51.557 25.167C51.596 25.714 51.264 26.476 50.326 26.534C48.899 26.613 47.102 25.264 47.102 25.264L46.418 28.176C46.418 28.176 48.196 30.071 51.44 29.876C54.136 29.7 56.012 27.55 55.817 24.385C55.663 21.963 53.96 20.87 52.611 20.004C51.728 19.438 50.997 18.968 50.951 18.288C50.931 17.956 50.951 16.706 52.944 16.588C53.7995 16.5389 54.655 16.686 55.445 17.018Z" fill="#95BF47"/>
<path d="M66.255 8.66C66.135 8.64 63.785 8.62 63.785 8.62L61.615 6.5C61.5442 6.42614 61.4473 6.38305 61.345 6.38V35.6L70.155 33.41C70.155 33.41 66.555 9.11001 66.545 8.93001C66.529 8.85954 66.4916 8.79575 66.4378 8.74741C66.3841 8.69906 66.3168 8.66853 66.245 8.66H66.255Z" fill="#5E8E3E"/>
<path d="M56.465 13.19L55.445 17.02C55.445 17.02 54.315 16.49 52.945 16.59C50.945 16.71 50.935 17.96 50.945 18.29C51.065 20.01 55.565 20.38 55.815 24.39C56.015 27.55 54.135 29.7 51.435 29.88C50.5262 29.9596 49.6107 29.8495 48.7466 29.5569C47.8825 29.2643 47.0885 28.7954 46.415 28.18L47.105 25.26C47.105 25.26 48.905 26.61 50.325 26.53C50.4967 26.5265 50.6659 26.4879 50.8221 26.4166C50.9783 26.3453 51.1183 26.2428 51.2335 26.1154C51.3487 25.9881 51.4366 25.8385 51.4919 25.6759C51.5472 25.5134 51.5687 25.3412 51.555 25.17C51.415 22.94 47.755 23.06 47.515 19.4C47.315 16.31 49.345 13.19 53.815 12.9C55.585 12.74 56.465 13.19 56.465 13.19Z" fill="white"/>
<path d="M82.105 21.3599C81.085 20.8099 80.555 20.3399 80.555 19.6999C80.555 18.8699 81.275 18.3499 82.435 18.3499C83.755 18.3499 84.935 18.8899 84.935 18.8899L85.865 16.0399C85.865 16.0399 85.005 15.3799 82.485 15.3799C78.975 15.3799 76.525 17.3899 76.525 20.2199C76.525 21.8199 77.665 23.0599 79.185 23.9399C80.415 24.6399 80.845 25.1299 80.845 25.8699C80.845 26.6299 80.245 27.2399 79.085 27.2399C77.385 27.2399 75.785 26.3599 75.785 26.3599L74.785 29.2099C74.785 29.2099 76.275 30.2099 78.755 30.2099C82.375 30.2099 84.975 28.4299 84.975 25.2299C84.995 23.4899 83.675 22.2599 82.095 21.3599H82.105ZM96.515 15.3399C94.745 15.3399 93.335 16.1799 92.255 17.4699L92.205 17.4499L93.745 9.34995H89.705L85.805 29.9299H89.825L91.175 22.8999C91.705 20.2399 93.075 18.5999 94.355 18.5999C95.255 18.5999 95.605 19.1999 95.605 20.0899C95.605 20.6299 95.555 21.3199 95.435 21.8599L93.905 29.9099H97.935L99.515 21.5899C99.695 20.7099 99.815 19.6599 99.815 18.9699C99.815 16.7299 98.595 15.3399 96.515 15.3399ZM108.925 15.3399C104.085 15.3399 100.875 19.7099 100.875 24.5999C100.875 27.7299 102.815 30.2299 106.425 30.2299C111.175 30.2299 114.395 25.9699 114.395 20.9699C114.375 18.0899 112.675 15.3399 108.925 15.3399ZM106.925 27.1399C105.565 27.1399 104.975 25.9699 104.975 24.5199C104.975 22.2199 106.175 18.4399 108.365 18.4399C109.785 18.4399 110.265 19.6799 110.265 20.8699C110.265 23.3499 109.065 27.1399 106.935 27.1399H106.925ZM124.675 15.3399C121.965 15.3399 120.415 17.7199 120.415 17.7199H120.355L120.595 15.5499H117.035C116.824 17.3389 116.55 19.12 116.215 20.8899L113.415 35.6199H117.445L118.565 29.6599H118.635C118.635 29.6599 119.455 30.1899 121.005 30.1899C125.735 30.1899 128.815 25.3399 128.815 20.4399C128.835 17.7599 127.625 15.3399 124.675 15.3399ZM120.825 27.1999C119.775 27.1999 119.165 26.6099 119.165 26.6099L119.835 22.8399C120.295 20.3399 121.605 18.6599 123.015 18.6599C124.245 18.6599 124.615 19.7899 124.615 20.8899C124.615 23.4899 123.075 27.1899 120.825 27.1899V27.1999ZM134.585 9.56995C134.279 9.56987 133.975 9.63098 133.693 9.74968C133.411 9.86838 133.155 10.0423 132.941 10.2612C132.726 10.4801 132.558 10.7396 132.446 11.0244C132.333 11.3093 132.278 11.6137 132.285 11.9199C132.285 13.1099 133.035 13.9299 134.175 13.9299H134.235C135.485 13.9299 136.575 13.0899 136.595 11.5899C136.595 10.4099 135.815 9.56995 134.585 9.56995ZM128.955 29.9299H132.985L135.715 15.6699H131.655L128.955 29.9299ZM145.955 15.6299H143.155L143.295 14.9699C143.535 13.5999 144.355 12.3699 145.685 12.3699C146.405 12.3699 146.975 12.5699 146.975 12.5699L147.755 9.41995C147.755 9.41995 147.055 9.06995 145.565 9.06995C144.135 9.06995 142.715 9.46995 141.615 10.4099C140.245 11.5899 139.605 13.2699 139.275 14.9699L139.155 15.6299H137.275L136.695 18.6599H138.565L136.435 29.9299H140.465L142.595 18.6599H145.365L145.965 15.6299H145.955ZM155.655 15.6699C155.655 15.6699 153.125 22.0199 151.995 25.4699H151.935C151.855 24.3699 150.935 15.6699 150.935 15.6699H146.715L149.145 28.7799C149.195 29.0799 149.165 29.2499 149.065 29.4499C148.535 30.4201 147.78 31.2498 146.865 31.8699C146.115 32.4199 145.265 32.7699 144.585 32.9999L145.705 36.4199C146.525 36.2499 148.205 35.5799 149.645 34.2299C151.485 32.5099 153.185 29.8599 154.925 26.2399L159.845 15.6699H155.645H155.655Z" fill="black"/>
</svg>
