<svg width="10" height="10" viewBox="0 0 10 10" fill="none" xmlns="http://www.w3.org/2000/svg">
<path d="M4.005 7.5C5.938 7.5 7.505 5.933 7.505 4C7.505 2.067 5.938 0.5 4.005 0.5C2.07201 0.5 0.505005 2.067 0.505005 4C0.505005 5.933 2.07201 7.5 4.005 7.5Z" stroke="#62788D"/>
<path d="M6.15501 6.15C6.35501 5.95 6.65501 5.95 6.85501 6.15L8.97501 8.27C9.03232 8.31298 9.07973 8.36778 9.11401 8.43067C9.1483 8.49357 9.16868 8.5631 9.17376 8.63456C9.17883 8.70601 9.1685 8.77772 9.14345 8.84484C9.1184 8.91195 9.07922 8.9729 9.02857 9.02355C8.97791 9.07421 8.91697 9.11339 8.84985 9.13844C8.78274 9.16348 8.71102 9.17382 8.63957 9.16874C8.56811 9.16366 8.49858 9.14329 8.43569 9.109C8.37279 9.07471 8.318 9.02731 8.27501 8.97L6.15501 6.85C6.0634 6.75654 6.01208 6.63088 6.01208 6.5C6.01208 6.36912 6.0634 6.24346 6.15501 6.15Z" fill="#62788D"/>
</svg>
