<svg width="46" height="41" viewBox="0 0 46 41" fill="none" xmlns="http://www.w3.org/2000/svg">
<path fill-rule="evenodd" clip-rule="evenodd" d="M0.00500488 40.5H45.702V0.5H0.00500488V40.5ZM21.877 12.854C21.853 14.61 21.853 16.272 20.368 17.817C18.562 19.714 15.198 20.345 12.551 20.345C11.3113 20.3529 10.0746 20.2197 8.86501 19.948C8.02501 19.761 6.93601 19.433 5.84801 18.754C3.10101 16.998 3.078 14.82 3.078 12.854V3.256H7.43101V12.972C7.43101 14.446 7.752 15.686 9.41 16.436C10.82 17.069 12.081 17.022 13.368 16.975C15.025 16.833 16.089 16.412 16.782 15.664C17.202 15.195 17.574 14.657 17.523 12.994V3.256H21.878L21.877 12.854ZM22.041 32.954C22.041 33.913 21.808 34.92 21.215 35.739C19.798 37.683 17.452 37.683 15.674 37.705H3.17001V21.18H14.977C16.859 21.226 19.153 21.273 20.391 22.888C21.035 23.731 21.113 24.644 21.113 25.229C21.113 25.674 21.061 26.611 20.391 27.429C19.643 28.319 18.664 28.6 18.097 28.74C19.231 29.022 22.041 29.653 22.041 32.955V32.954ZM37.4 12.878L42.694 19.783H37.549L32.873 13.135H27.901V19.783H23.522V3.256H35.544C37.524 3.256 39.329 3.42 40.789 5.012C41.68 5.995 41.927 7.236 41.927 8.196C41.927 9.46 41.482 10.959 40.245 11.848C39.305 12.527 38.092 12.76 37.4 12.878ZM42.793 37.731H38.464L29.806 28.414C29.0294 27.5711 28.2787 26.7047 27.555 25.816C27.679 27.08 27.679 27.361 27.703 28.625V37.731H23.548V21.204H27.902L36.46 30.404C37.499 31.551 37.697 31.786 38.786 33.074C38.638 31.504 38.638 31.083 38.613 29.655V21.204H42.793V37.731ZM37.499 8.243C37.499 7.915 37.449 7.353 37.153 6.955C36.831 6.557 36.41 6.159 34.679 6.159H27.901V10.209H34.877C35.816 10.209 37.499 10.092 37.499 8.243ZM17.478 32.555C17.478 30.565 15.751 30.565 15.081 30.565H7.68201V34.803H14.514C15.544 34.803 17.478 34.826 17.478 32.555ZM16.756 25.837C16.756 24.081 15.286 24.057 14.564 24.057H7.68201V27.687H14.204C14.745 27.687 15.26 27.663 15.674 27.522C16.756 27.124 16.756 26.024 16.756 25.837Z" fill="black"/>
</svg>
